<svg width="18" height="18" viewBox="0 0 18 18" fill="none" xmlns="http://www.w3.org/2000/svg">
<path d="M9 16.125C12.15 12.375 13.65 9.825 13.65 7.65C13.65 6.41674 13.1601 5.234 12.288 4.36195C11.416 3.48991 10.2333 3 9 3C7.76674 3 6.584 3.48991 5.71195 4.36195C4.83991 5.234 4.35 6.41674 4.35 7.65C4.35 9.825 5.85 12.375 9 16.125Z" stroke="#3B82F6" stroke-width="1.35" stroke-linejoin="round"/>
<path d="M9 9.3C9.99411 9.3 10.8 8.49411 10.8 7.5C10.8 6.50588 9.99411 5.7 9 5.7C8.00588 5.7 7.2 6.50588 7.2 7.5C7.2 8.49411 8.00588 9.3 9 9.3Z" stroke="#3B82F6" stroke-width="1.35"/>
</svg>
